<mxfile host="app.diagrams.net" modified="2024-04-18T13:16:56.457Z" agent="Mozilla/5.0 (Windows NT 10.0; Win64; x64) AppleWebKit/537.36 (KHTML, like Gecko) Chrome/124.0.0.0 Safari/537.36" version="24.2.5" etag="fr6zWVIY5mdz7oXRUkzT" type="github">
  <diagram name="Page-1" id="FFHg5Bxd0vqpQ7yzcPRh">
    <mxGraphModel>
      <root>
        <mxCell id="0" />
        <mxCell id="1" parent="0" />
      </root>
    </mxGraphModel>
  </diagram>
</mxfile>
